<?xml version="1.0" encoding="UTF-8"?>
<svg id="Capa_2" data-name="Capa 2" xmlns="http://www.w3.org/2000/svg" viewBox="0 0 1611.02 709.6">
  <defs>
    <style>
      .cls-1 {
        fill: #fff;
      }
    </style>
  </defs>
  <g id="Capa_1-2" data-name="Capa 1">
    <g>
      <g>
        <path class="cls-1" d="M156,0H0v484.97h88.18v-178.86h67.83c115.41,0,184.32-58.6,184.32-156.77S278.31,0,156,0ZM252.69,149.34c0,57.21-31.95,82.72-103.58,82.72h-60.93V74.05h60.93c74.54,0,103.58,21.11,103.58,75.29Z"/>
        <path class="cls-1" d="M730.79,143.88C730.79,49.75,669.66,0,554.03,0h-159.8v484.97h88.75v-190.35h63.11l106.69,190.35h99.84l-117.28-203.25c61.66-22,95.45-70.59,95.45-137.83ZM643.15,143.88c0,50.88-32.88,76.68-97.71,76.68h-62.46V74.05h62.46c68.49,0,97.71,20.88,97.71,69.83Z"/>
        <path class="cls-1" d="M1406.03,0h-85.66l-106.41,237.38,12.94-.33c5.09-.14,10.4-.32,15.82-.5,20.7-.72,42.11-1.46,58.82.45l6.03.69,55.51-129.95,79.94,189.45c-57.78-27.44-133.59-41-211.28-37.48-28.9-1.43-57.7-4.73-85.74-9.8.07-3.14.11-6.3.11-9.49,0-145.15-71.76-238.93-182.81-238.93s-182.8,93.79-182.8,238.93,71.75,243.05,182.8,243.05c88.31,0,153.22-60.5,174.83-162.33,14.62,2.24,29.34,4.09,43.94,5.56l-67.49,158.27h88.97l61.25-145c98.66.36,214.63,43.4,255.8,140.04l2.11,4.96h88.3L1406.03,0ZM1053.35,303.62c-12.31,65.78-44.88,103.31-90.04,103.31-58.86,0-95.43-63.8-95.43-166.51,0-7.51.21-14.92.63-22.13,48.48,37.02,110.55,65.68,184.84,85.33ZM895.43,137.98c-1.94-10.78.92-21.86,7.84-30.37,15.95-19.63,36.16-29.58,60.04-29.58,56.33,0,92.31,57.18,95.21,150.07-63.97-20.35-113.97-46.06-145.25-64.48-9.41-5.55-15.91-14.88-17.84-25.64Z"/>
      </g>
      <g>
        <path class="cls-1" d="M114.3,595.57h-23.5v-11.16h60.28v11.16h-23.5v63.44h-13.27v-63.44Z"/>
        <path class="cls-1" d="M163.3,630.54v-46.14h13.34v47.12c0,12.1,4.97,17.31,12.91,17.31s13.14-5.21,13.14-17.31v-47.12h12.8v46.14c0,20.36-9.58,29.83-25.94,29.83s-26.25-9.47-26.25-29.83Z"/>
        <path class="cls-1" d="M295.28,584.41h14.12l10.43,37.46c2.42,8.45,4.07,15.81,6.56,24.23h.46c2.49-8.42,4.26-15.78,6.56-24.23l10.35-37.46h13.58l-23.06,74.6h-15.79l-23.21-74.6Z"/>
        <path class="cls-1" d="M365.42,621.37c0-24.53,12.03-38.33,29.34-38.33s29.34,13.8,29.34,38.33-12.03,39.01-29.34,39.01-29.34-14.02-29.34-39.01ZM410.45,621.37c0-17.11-6.19-26.78-15.69-26.78s-15.69,9.67-15.69,26.78,6.19,27.47,15.69,27.47,15.69-9.89,15.69-27.47Z"/>
        <path class="cls-1" d="M435.91,650.97l38.13-55.48h-34.69v-11.16h51.12v8.04l-38.2,55.48h38.69v11.16h-55.05v-8.04Z"/>
        <path class="cls-1" d="M519.02,675.66c9.91-3.96,14.74-9.91,14.59-18.25l-1.3-12.09,6.64,10.27c-1.99,1.93-4.44,2.62-6.98,2.62-5.7,0-10.66-3.52-10.66-10.15s4.98-10.22,11.01-10.22c8.03,0,12.24,6.47,12.24,17.12,0,13.94-7.91,23.84-22.09,28.56l-3.45-7.86Z"/>
        <path class="cls-1" d="M642.8,584.41h13.93l19.73,41.9,6.77,15.94h.31c-.55-7.63-1.8-17.08-1.8-25.41v-32.43h12.65v74.6h-13.93l-19.73-41.94-6.77-15.9h-.31c.55,7.94,1.8,16.93,1.8,25.19v32.65h-12.65v-74.6Z"/>
        <path class="cls-1" d="M710.96,630.54v-46.14h13.34v47.12c0,12.1,4.97,17.31,12.91,17.31s13.14-5.21,13.14-17.31v-47.12h12.8v46.14c0,20.36-9.58,29.83-25.94,29.83s-26.25-9.47-26.25-29.83Z"/>
        <path class="cls-1" d="M783.03,584.41h47.83v11.16h-34.56v19.08h29.28v11.16h-29.28v22.05h35.71v11.16h-48.98v-74.6Z"/>
        <path class="cls-1" d="M846.42,649.48l7.72-9.13c5.66,5.09,13,8.49,20.82,8.49,8.68,0,13.27-3.82,13.27-9.03,0-6.65-5.11-8.43-12.39-11.5l-10.25-4.46c-7.84-3.05-15.92-8.84-15.92-19.79,0-11.87,10.69-21.03,25.92-21.03,9.15,0,17.78,3.56,23.89,9.49l-6.78,8.42c-5.07-4.04-10.24-6.37-17.74-6.37-7.08,0-11.85,3.19-11.85,8.7,0,5.81,5.96,7.93,12.72,10.52l9.79,4.26c9.49,3.65,16.21,9.32,16.21,20.09,0,12.12-10.21,22.22-27.65,22.22-10.49,0-20.42-4-27.74-10.9Z"/>
        <path class="cls-1" d="M935.79,595.57h-23.5v-11.16h60.28v11.16h-23.5v63.44h-13.27v-63.44Z"/>
        <path class="cls-1" d="M986.23,584.41h24.94c15.47,0,27.5,5.48,27.5,22.16s-12.03,23.31-27.5,23.31h-11.6v29.14h-13.34v-74.6ZM1009.8,619.27c10.21,0,15.77-4.29,15.77-12.7s-5.55-11.55-15.77-11.55h-10.23v24.25h10.23ZM1018.27,618.38l23.28,40.63h-14.9l-18-32.68,9.62-7.95Z"/>
        <path class="cls-1" d="M1050,621.37c0-24.53,12.03-38.33,29.34-38.33s29.34,13.8,29.34,38.33-12.03,39.01-29.34,39.01-29.34-14.02-29.34-39.01ZM1095.03,621.37c0-17.11-6.19-26.78-15.69-26.78s-15.69,9.67-15.69,26.78,6.19,27.47,15.69,27.47,15.69-9.89,15.69-27.47Z"/>
        <path class="cls-1" d="M1191.6,584.41h24.94c15.47,0,27.5,5.48,27.5,22.16s-12.03,23.31-27.5,23.31h-11.6v29.14h-13.34v-74.6ZM1215.18,619.27c10.21,0,15.77-4.29,15.77-12.7s-5.55-11.55-15.77-11.55h-10.23v24.25h10.23ZM1223.64,618.38l23.28,40.63h-14.9l-18-32.68,9.62-7.95Z"/>
        <path class="cls-1" d="M1258.62,630.54v-46.14h13.34v47.12c0,12.1,4.97,17.31,12.91,17.31s13.14-5.21,13.14-17.31v-47.12h12.8v46.14c0,20.36-9.58,29.83-25.94,29.83s-26.25-9.47-26.25-29.83Z"/>
        <path class="cls-1" d="M1326.32,584.41h14.7l8.86,29.1,3.06,11.17h.46l2.99-11.17,8.94-29.1h14.7v74.6h-11.72v-30.1c0-7.85,1.31-23.35,1.93-30.58h-.34l-4.98,17.33-8.21,23.58h-7.52l-8.15-23.58-4.84-17.33h-.31c.77,7.23,1.93,22.73,1.93,30.58v30.1h-11.5v-74.6Z"/>
        <path class="cls-1" d="M1397.23,584.41h23.15c15.37,0,26.47,4.67,26.47,18.34,0,7.04-4.1,13.91-12.91,16.19v.46c10.79,1.84,16.76,7.6,16.76,17.71,0,14.93-11.91,21.91-28.39,21.91h-25.07v-74.6ZM1419.2,615.06c10.43,0,14.69-3.77,14.69-10.72s-4.76-9.35-14.4-9.35h-9.06v20.07h8.77ZM1420.93,648.43c10.94,0,16.8-3.76,16.8-12.2,0-7.86-5.65-11.08-16.8-11.08h-10.5v23.28h10.5Z"/>
        <path class="cls-1" d="M1460.75,621.37c0-24.53,12.03-38.33,29.34-38.33s29.34,13.8,29.34,38.33-12.03,39.01-29.34,39.01-29.34-14.02-29.34-39.01ZM1505.77,621.37c0-17.11-6.19-26.78-15.69-26.78s-15.69,9.67-15.69,26.78,6.19,27.47,15.69,27.47,15.69-9.89,15.69-27.47Z"/>
      </g>
    </g>
  </g>
</svg>