<?xml version="1.0" encoding="UTF-8"?>
<svg id="Capa_2" data-name="Capa 2" xmlns="http://www.w3.org/2000/svg" viewBox="0 0 31.75 9.56">
  <defs>
    <style>
      .cls-1 {
        fill: #d62929;
      }
    </style>
  </defs>
  <g id="Capa_1-2" data-name="Capa 1">
    <g>
      <path class="cls-1" d="M3.07,0H0v9.56h1.74v-3.53h1.34c2.27,0,3.63-1.16,3.63-3.09S5.49,0,3.07,0ZM4.98,2.94c0,1.13-.63,1.63-2.04,1.63h-1.2V1.46h1.2c1.47,0,2.04.42,2.04,1.48Z"/>
      <path class="cls-1" d="M14.4,2.84c0-1.86-1.2-2.84-3.48-2.84h-3.15v9.56h1.75v-3.75h1.24l2.1,3.75h1.97l-2.31-4.01c1.22-.43,1.88-1.39,1.88-2.72ZM12.68,2.84c0,1-.65,1.51-1.93,1.51h-1.23V1.46h1.23c1.35,0,1.93.41,1.93,1.38Z"/>
      <path class="cls-1" d="M27.71,0h-1.69l-2.1,4.68h.26c.1,0,.21-.01.31-.02.41-.01.83-.03,1.16,0h.12s1.09-2.55,1.09-2.55l1.58,3.73c-1.14-.54-2.63-.81-4.16-.74-.57-.03-1.14-.09-1.69-.19,0-.06,0-.12,0-.19C22.59,1.88,21.18.03,18.99.03s-3.6,1.85-3.6,4.71,1.41,4.79,3.6,4.79c1.74,0,3.02-1.19,3.45-3.2.29.04.58.08.87.11l-1.33,3.12h1.75l1.21-2.86c1.94,0,4.23.86,5.04,2.76l.04.1h1.74L27.71,0ZM20.76,5.98c-.24,1.3-.88,2.04-1.77,2.04-1.16,0-1.88-1.26-1.88-3.28,0-.15,0-.29.01-.44.96.73,2.18,1.29,3.64,1.68ZM17.65,2.72c-.04-.21.02-.43.15-.6.31-.39.71-.58,1.18-.58,1.11,0,1.82,1.13,1.88,2.96-1.26-.4-2.25-.91-2.86-1.27-.19-.11-.31-.29-.35-.51Z"/>
    </g>
  </g>
</svg>